<?xml version="1.0" encoding="utf-8"?><svg viewBox="0 0 103 68" xmlns="http://www.w3.org/2000/svg" xmlns:xlink="http://www.w3.org/1999/xlink"><style>:root>svg{display:none}:root>svg:target{display:block}</style><svg viewBox="0 0 78 68" id="1" xmlns="http://www.w3.org/2000/svg"><path d="M68.388 38.421h-.071a4.323 4.323 0 00-6.025-.496l-11.695 9.71-11.198.567-2.268-3.615 8.788-1.843a4.185 4.185 0 00-1.134-8.292L28.2 35.586a5.032 5.032 0 00-2.906 1.063L8 50.47 18.065 65l8.647-7.867 22.68 1.275a5.032 5.032 0 003.615-1.205l14.884-12.9a4.182 4.182 0 00.497-5.882zm-16.302 17.72a3.615 3.615 0 01-2.623.85l-23.248-1.347-7.938 7.23-8.363-12.12 16.23-13.042a3.686 3.686 0 012.127-.78l16.656-1.063a2.792 2.792 0 11.78 5.529l-10.844 2.268 3.756 6.025 12.545-.638.213-.142 11.907-9.923a2.906 2.906 0 014.04.354h.071a2.764 2.764 0 01-.283 3.899l-15.026 12.9zM21.112 19.355v7.796H33.8v2.906h17.578v-2.835h12.687v-7.796a7.938 7.938 0 00-3.19-6.38 5.955 5.955 0 10-10.064 0c-.496.373-.948.801-1.347 1.277a8.505 8.505 0 00-1.559-1.418 6.38 6.38 0 10-10.632 0 8.504 8.504 0 00-1.488 1.418 8.086 8.086 0 00-1.347-1.276 5.954 5.954 0 10-10.064 0 7.938 7.938 0 00-3.26 6.308zm34.73-14.176a4.536 4.536 0 11-4.536 4.537 4.536 4.536 0 014.536-4.466v-.07zm-4.181 8.931a5.954 5.954 0 008.292 0 6.521 6.521 0 012.694 5.316v6.379h-11.27v-6.167a8.505 8.505 0 00-1.063-4.181 6.662 6.662 0 011.346-1.347zm-9.073-9.64a4.962 4.962 0 110 9.924 4.962 4.962 0 010-9.923zm-4.394 9.498a6.308 6.308 0 008.86 0 7.017 7.017 0 012.905 5.741v9.002H35.217v-9.073a7.089 7.089 0 012.977-5.67zm-8.86-8.718a4.536 4.536 0 110 9.072 4.536 4.536 0 010-9.072zm-4.11 8.86a5.954 5.954 0 008.292 0c.541.398 1.02.876 1.417 1.418a8.507 8.507 0 00-1.063 4.11v6.167H22.53v-6.38a6.52 6.52 0 012.693-5.315z"/></svg><svg viewBox="0 0 78 68" id="2" xmlns="http://www.w3.org/2000/svg"><path d="M67.15 49.1l-8.14-6.874a4.125 4.125 0 00.479-1.61 4.114 4.114 0 00-.962-3.023 4.097 4.097 0 00-1.963-1.294 4.163 4.163 0 00-.148-5.165 4.102 4.102 0 00-2.086-1.327 4.162 4.162 0 00-.368-4.844 4.115 4.115 0 00-2.554-1.421 4.154 4.154 0 00-.748-4.029 4.115 4.115 0 00-2.821-1.455 4.106 4.106 0 00-3.028.959l-.154.13-4.666-2.177c-2.442-1.268-4.58-.271-5.614 1.276a4.452 4.452 0 00-.665 1.629l-1.017-.859a4.16 4.16 0 00-5.85.497 4.151 4.151 0 00-.746 4.029c-1 .148-1.898.646-2.554 1.422a4.126 4.126 0 00-.96 3.025c.056.656.259 1.274.59 1.818a4.128 4.128 0 00-2.085 1.326 4.16 4.16 0 00-.147 5.165 4.124 4.124 0 00-1.963 1.292 4.151 4.151 0 00-.48 4.635l-8.144 6.874a1 1 0 101.29 1.529l8.173-6.897 3.278 2.764a4.113 4.113 0 003.024.959 4.11 4.11 0 002.816-1.453 4.111 4.111 0 00.963-3.023 4.15 4.15 0 00-.494-1.637 4.111 4.111 0 002.189-1.342c.81-.961 1.089-2.183.902-3.336h.003c1.166 0 2.315-.484 3.102-1.413.735-.739 1.115-1.745 1.068-2.831-.002-.036-.014-.07-.016-.105.164.02.326.047.493.047.119 0 .24-.005.36-.016 1.107-.094 2.108-.611 2.76-1.391.739-.735 1.12-1.738 1.076-2.825a4.255 4.255 0 00-1.091-2.647l5.847-4.937a2.115 2.115 0 011.569-.494 2.126 2.126 0 011.46.751 2.155 2.155 0 01-.257 3.03l-.756.64-.001.001a.999.999 0 101.292 1.526l.005-.005a2.157 2.157 0 011.557-.491 2.13 2.13 0 011.464.75 2.153 2.153 0 01-.258 3.03L50.57 30.64l-.002.001a1 1 0 001.292 1.527 2.166 2.166 0 011.566-.497 2.128 2.128 0 011.459.751 2.156 2.156 0 01-.257 3.03l-1.946 1.642-.001.001a1 1 0 001.289 1.529l.003-.002a2.144 2.144 0 011.564-.494 2.126 2.126 0 011.46.753c.369.437.545.993.497 1.566a2.136 2.136 0 01-.751 1.462l-9.09 7.672c-3.708 3.131-6.767 2.8-11.362 1.886a.988.988 0 00-.841.217L21.765 63.236A.999.999 0 0022.41 65a.996.996 0 00.645-.236l13.318-11.243c1.898.366 3.635.621 5.313.559l12.772 10.687a1 1 0 001.285-1.533l-11.416-9.553c1.515-.429 3.027-1.229 4.616-2.57l8.748-7.382 8.169 6.898a.998.998 0 101.29-1.527zM36.146 21.927c-.757-.639-.62-1.801-.104-2.57.254-.38 1.224-1.547 3.068-.594l3.866 1.804-4.221 3.564-2.6-2.194-.007-.006c-.001-.001 0-.003-.002-.004zM27.41 44.709a2.12 2.12 0 01-1.458.751 2.113 2.113 0 01-1.566-.495l-3.623-3.054a2.155 2.155 0 01-.255-3.031 2.146 2.146 0 013.008-.269l3.642 3.071c.436.367.702.886.75 1.461a2.13 2.13 0 01-.498 1.566zm2.657-6.001a2.154 2.154 0 01-3.028.259l-2.21-1.863-.006-.009-.001-.001-1.945-1.641a2.156 2.156 0 01-.26-3.03 2.138 2.138 0 011.464-.752 2.136 2.136 0 011.567.497v.001c.003.002.007.002.009.004l4.15 3.507a2.153 2.153 0 01.26 3.028zm4.064-4.812a2.154 2.154 0 01-3.031.256l-4.174-3.525-.004-.002-1.593-1.344a2.13 2.13 0 01-.751-1.461 2.135 2.135 0 011.956-2.317 2.126 2.126 0 011.56.488l.009.008 5.769 4.868c.476.402.775 1.014.802 1.636.02.522-.151.996-.543 1.393zM38.8 29.6a2.128 2.128 0 01-1.46.751 2.108 2.108 0 01-1.563-.493c-.05-.041-.093-.042-.134-.019a4.36 4.36 0 00-.48-.5l-5.77-4.869-.012-.01-.747-.629a2.155 2.155 0 01-.26-3.029 2.157 2.157 0 013.03-.259l1.368 1.155.002.002 2.172 1.834.672.567 2.929 2.473c.476.401.774 1.013.8 1.637.022.519-.152.989-.547 1.389zM42.758 10.26a1 1 0 001-1V4a1 1 0 10-2 0v5.26a1 1 0 001 1zM56.007 13.135c.308 0 .61-.142.808-.408l3.11-4.24a1.001 1.001 0 00-1.612-1.183l-3.111 4.24a1.001 1.001 0 00.805 1.591zM28.702 12.727a.996.996 0 001.398.214.999.999 0 00.214-1.397L27.2 7.304a1 1 0 00-1.611 1.183l3.112 4.24z"/></svg><svg viewBox="0 0 78 68" id="3" xmlns="http://www.w3.org/2000/svg"><path d="M14.687 13.869h3.127a10.201 10.201 0 01-.935-.555 8.18 8.18 0 01-2.725-2.988c1.365.2 2.66.73 3.776 1.541a9.22 9.22 0 012.111 2.002h2.192a10.225 10.225 0 00-3.229-3.499 9.744 9.744 0 00-5.215-1.892 2.126 2.126 0 00-1.6.46 1.38 1.38 0 00-.073.943 7.735 7.735 0 002.571 3.988z"/><path d="M7.784 13.869h2.111c-1.621-2.52-2.001-5.186-.73-7.027 2.023-2.878 7.348-2.637 11.892.533a12.768 12.768 0 015.069 6.494h1.884c-.679-2.922-2.848-5.844-5.909-7.991A14.93 14.93 0 0013.752 3c-2.659 0-4.82.986-6.084 2.79a6.574 6.574 0 00-.987 5.048c.209 1.061.58 2.084 1.103 3.031z"/><path d="M29.683 13.869a13.951 13.951 0 014.383-4.755c4.55-3.178 9.875-3.419 11.891-.533 1.001 1.424 1.001 3.338.205 5.295h1.943c.143-.425.255-.86.336-1.3a6.576 6.576 0 00-.986-5.047c-1.264-1.797-3.426-2.79-6.085-2.79a14.93 14.93 0 00-8.349 2.877 15.34 15.34 0 00-5.332 6.253h1.994z"/><path d="M36.812 13.869l.358-.263a8.523 8.523 0 013.776-1.52 7.013 7.013 0 01-1.322 1.805h2.367a5.988 5.988 0 001.023-2.25 1.38 1.38 0 00-.073-.942 2.126 2.126 0 00-1.6-.46c-1.88.099-3.692.74-5.215 1.848a11.532 11.532 0 00-2.002 1.76l2.688.022zM42.06 51.886l-1.29-1.29-12.913 12.912 1.29 1.29L42.06 51.887zM57.399 51.886l-1.291-1.291-12.913 12.912 1.291 1.291L57.4 51.886zM72.738 51.885l-1.291-1.29-12.913 12.912 1.291 1.29 12.913-12.912zM24.183 57.696H7.565V30.304H5.74v29.123h18.444v-1.731zM51.392 30.304h-1.826v19.357h1.826V30.304z"/><path d="M24.183 57.696H24V15.695h9.13v33.966h1.827V13.869H22.174v45.653h2.009v-1.826z"/><path d="M24.913 50.391V65h51.131V50.391h-51.13zm1.826 12.783V52.217h12.418L28.2 63.174h-1.46zm4.032 0l10.957-10.957h12.754L43.525 63.174H30.772zm15.34 0l10.957-10.957H69.82L58.864 63.174H46.111zm28.107 0H61.435l10.957-10.957h1.812l.014 10.957zM22.174 28.478H4.826V15.695h17.348v-1.826H3v16.435h19.174v-1.826zM34.957 13.869v1.826h17.348v12.783H34.957v1.826H54.13V13.869H34.957z"/></svg><svg viewBox="0 0 17 13" id="check" xmlns="http://www.w3.org/2000/svg"><path d="M15.5 1L7 11 1 4"/></svg><svg viewBox="0 0 20 21" id="checkcircle" xmlns="http://www.w3.org/2000/svg"><circle cx="10" cy="10.5" r="9.5"/><circle cx="10" cy="10.5" r="4"/></svg><svg viewBox="0 0 103 39" id="logo" xmlns="http://www.w3.org/2000/svg"><g clip-path="url(#fclip0_100_4238)"><path d="M102.836 19.946v-2.13c0-7.461-4.005-10.787-10.06-10.787h-.105c-9.27.07-10.202 8.337-10.202 10.931 0 8.657 4.402 11.684 10.202 11.828.18 0 .323.037.498.037 3.687 0 7.982-1.767 9.45-6.96h-5.8c-.424 1.548-2.035 2.38-3.65 2.38h-.498c-4.084-.288-4.402-3.709-4.402-5.3h14.567zm-10.165-8.263h.037c1.79 0 4.047 1.084 4.365 4.548h-8.804c.318-2.818 1.753-4.548 4.402-4.548zM81.25.182h-5.656v29.21h5.657V.183zM65.36 7.03c-.61 0-1.144.037-1.648.111-2.654.502-3.867 2.167-4.762 3.571h-.069V7.574h-5.44v30.37h5.652V26.44l.106.032c.578 1.009 1.685 2.744 4.513 3.208.466.075.964.15 1.542.15 6.372 0 9.095-5.663 9.095-11.583 0-7.499-4.227-11.219-8.99-11.219zm-1.648 18.109h-.143c-3.65 0-4.688-4.008-4.688-6.565 0-3.427 1.256-6.634 4.831-6.634 3.867 0 4.831 3.496 4.831 6.965 0 3.17-1.361 6.127-4.83 6.24v-.006zM21.156 7.574v21.675h5.657V15.937c0-2.305.858-4.147 3.507-4.147 2.866 0 3.4 2.6 3.4 4.436v13.017h5.615v-12.98c0-2.562 1.044-4.473 3.904-4.473 1.61 0 3.04 1.084 3.04 4.291V29.25h5.62V14.245c0-4.723-3.22-7.216-7.441-7.216-3.433 0-5.011 2.38-5.695 3.427-1.504-2.274-2.897-3.427-6.012-3.427-3.798 0-5.334 2.311-6.049 3.715h-.106v-3.17h-5.44zM26.575 0h-5.419v5.263h5.419V0zM19.043 14.427c-.43-6.133-5.44-7.179-9.63-7.179-6.69 0-8.66 4.078-8.66 7.248 0 8.118 13.316 5.375 13.316 8.983 0 .795-.678 2.274-3.618 2.274-3.538 0-4.65-1.372-4.65-3.213H0c0 5.77 5.44 7.498 10.308 7.498 3.364 0 9.376-1.115 9.376-7.43 0-8.005-13.423-5.48-13.423-8.907 0-.94.392-2.13 3.47-2.13 3.077 0 3.58 1.479 3.797 2.85h5.515v.006zM64.279 37.19h-.747v.732h.747v-.731zM65.54 37.922h-.747v-.731h.747v.73zM66.795 37.922h-.742v-.731h.742v.73zM67.982 36.251h.99v-.998h.7v2.674h-.7v-1.11h-.99v1.11h-.694v-2.674h.694v.998zM71.785 37.137c-.058.187-.254.294-.45.294-.562 0-.604-.454-.604-.657h1.8v-.261c0-.918-.497-1.33-1.244-1.33-1.16 0-1.271 1.03-1.271 1.351 0 1.1.577 1.463 1.319 1.463.455 0 .98-.214 1.165-.854h-.715v-.006zm-1.054-.816c.037-.347.217-.56.545-.56.223 0 .498.133.535.56h-1.086.006zM76.52 35.248v2.674h-.694v-2.108h-.99v2.108h-.7v-2.674h2.384zM77.66 36.61c0 .32.127.81.577.81.45 0 .614-.373.614-.768 0-.427-.116-.86-.593-.86-.445 0-.598.4-.598.822v-.005zm0-.972h.01c.133-.208.323-.46.79-.46.587 0 1.112.465 1.112 1.388 0 .732-.334 1.425-1.123 1.425-.487 0-.662-.266-.747-.41h-.016V39h-.694v-3.748h.673v.39l-.005-.005zM81.145 35.771c.535 0 .636.475.636.817 0 .341-.096.816-.636.816s-.64-.475-.64-.822c0-.346.105-.81.64-.81zm0-.592c-.71 0-1.356.443-1.356 1.409s.646 1.409 1.356 1.409c.71 0 1.35-.449 1.35-1.415s-.64-1.403-1.35-1.403zM84.445 36.95c0 .123-.122.47-.477.47-.53 0-.535-.582-.535-.87 0-.336.111-.774.551-.774.334 0 .434.256.461.432h.705c-.064-.827-.747-1.024-1.171-1.024-.9 0-1.266.613-1.266 1.478 0 .56.228 1.334 1.224 1.334.995 0 1.18-.768 1.207-1.046h-.699zM86.77 37.922v-2.109h.79v-.56h-2.273v.56h.79v2.109h.693zM89.047 35.771c.535 0 .636.475.636.817 0 .341-.1.816-.636.816-.535 0-.64-.475-.64-.822 0-.346.105-.81.64-.81zm0-.592c-.71 0-1.356.443-1.356 1.409s.647 1.409 1.356 1.409c.71 0 1.351-.449 1.351-1.415s-.64-1.403-1.35-1.403zM92.703 35.728h.46c.234 0 .392.08.392.3 0 .218-.164.303-.392.303h-.455v-.603h-.005zm-.694 2.194h1.33c.603 0 .969-.235.969-.731 0-.438-.297-.609-.572-.673.275-.07.492-.267.492-.576 0-.449-.434-.694-1.022-.694h-1.197v2.674zm.694-1.17h.503c.254 0 .424.108.424.342 0 .262-.16.342-.413.342h-.514v-.688.005zM95.352 36.945l1.006-1.692h.747v2.674h-.7V36.23L95.4 37.927h-.747v-2.674h.7v1.692zM98.26 36.251h.995v-.998h.694v2.674h-.694v-1.11h-.996v1.11h-.694v-2.674h.694v.998zM101.655 35.771c.535 0 .635.475.635.817 0 .341-.1.816-.635.816s-.641-.475-.641-.822c0-.346.101-.81.641-.81zm0-.592c-.71 0-1.356.443-1.356 1.409s.646 1.409 1.356 1.409c.71 0 1.351-.449 1.351-1.415s-.641-1.403-1.351-1.403z"/></g><defs><clipPath id="fclip0_100_4238"><path d="M0 0h103v39H0z"/></clipPath></defs></svg></svg>