<svg width="78" height="68" viewBox="0 0 78 68" fill="none" xmlns="http://www.w3.org/2000/svg">
<path d="M68.3876 38.421H68.3167C67.5764 37.5675 66.5315 37.0377 65.4055 36.945C64.2796 36.8523 63.1621 37.204 62.2921 37.9248L50.5973 47.635L39.3987 48.202L37.1306 44.5873L45.9194 42.7445C47.0191 42.5941 48.014 42.013 48.6853 41.1291C49.3565 40.2452 49.6491 39.1308 49.4987 38.0311C49.3484 36.9315 48.7673 35.9366 47.8834 35.2653C46.9994 34.5941 45.8851 34.3014 44.7854 34.4518L28.2001 35.5859C27.1438 35.6262 26.1271 35.9982 25.2941 36.649L8 50.4701L18.0646 65L26.7116 57.1326L49.3924 58.4084C50.7087 58.4961 52.0068 58.0634 53.0072 57.2035L67.8914 44.3038C68.7357 43.5884 69.2619 42.5675 69.3549 41.4649C69.4479 40.3622 69.1001 39.2676 68.3876 38.421ZM52.0858 56.1403C51.3583 56.7591 50.4155 57.0649 49.4633 56.9908L26.2155 55.6442L18.2772 62.8737L9.91369 50.7536L26.1446 37.7122C26.754 37.2356 27.4979 36.9628 28.2709 36.9325L44.9271 35.8694C45.2901 35.8182 45.6597 35.839 46.0146 35.9306C46.3696 36.0222 46.703 36.1829 46.9959 36.4033C47.2888 36.6238 47.5354 36.8998 47.7216 37.2156C47.9078 37.5314 48.03 37.8808 48.0812 38.2438C48.1324 38.6068 48.1116 38.9763 48.02 39.3313C47.9283 39.6862 47.7677 40.0197 47.5472 40.3125C47.3267 40.6054 47.0507 40.852 46.7349 41.0382C46.4192 41.2244 46.0698 41.3466 45.7068 41.3978L34.8626 43.6659L38.6191 49.6905L51.1644 49.0526L51.377 48.9108L63.2844 38.988C63.8712 38.5088 64.6218 38.2777 65.3765 38.3439C66.1311 38.4101 66.8301 38.7684 67.3244 39.3424H67.3953C67.8745 39.8969 68.1139 40.6192 68.0607 41.3502C68.0075 42.0812 67.6662 42.7612 67.1118 43.2406L52.0858 56.1403Z" fill="#4E4D4D"/>
<path d="M21.1123 19.3549V27.1514H33.7994V30.0574H51.377V27.2223H64.064V19.4258C64.0668 18.1874 63.7798 16.9656 63.226 15.858C62.6722 14.7503 61.8669 13.7876 60.8746 13.0468C61.4439 12.1463 61.7611 11.1096 61.7933 10.0447C61.8254 8.97975 61.5711 7.92574 61.0571 6.99258C60.543 6.05941 59.788 5.28128 58.8708 4.73934C57.9535 4.19741 56.9076 3.91153 55.8423 3.91153C54.7769 3.91153 53.731 4.19741 52.8137 4.73934C51.8965 5.28128 51.1415 6.05941 50.6274 6.99258C50.1134 7.92574 49.8591 8.97975 49.8913 10.0447C49.9234 11.1096 50.2406 12.1463 50.81 13.0468C50.3136 13.419 49.8617 13.8471 49.4633 14.3226C49.0043 13.7873 48.4805 13.3111 47.904 12.9051C48.5415 11.944 48.9065 10.828 48.9602 9.6759C49.0139 8.52381 48.7542 7.37873 48.2089 6.36249C47.6635 5.34625 46.8528 4.49689 45.863 3.90479C44.8733 3.31269 43.7415 3 42.5882 3C41.4348 3 40.3031 3.31269 39.3133 3.90479C38.3236 4.49689 37.5129 5.34625 36.9675 6.36249C36.4221 7.37873 36.1624 8.52381 36.2161 9.6759C36.2698 10.828 36.6348 11.944 37.2724 12.9051C36.7207 13.3157 36.2209 13.7917 35.7839 14.3226C35.3855 13.8471 34.9336 13.419 34.4373 13.0468C35.0066 12.1463 35.3239 11.1096 35.356 10.0447C35.3881 8.97975 35.1338 7.92574 34.6198 6.99258C34.1057 6.05941 33.3507 5.28128 32.4335 4.73934C31.5162 4.19741 30.4704 3.91153 29.405 3.91153C28.3396 3.91153 27.2937 4.19741 26.3765 4.73934C25.4592 5.28128 24.7042 6.05941 24.1901 6.99258C23.6761 7.92574 23.4219 8.97975 23.454 10.0447C23.4861 11.1096 23.8033 12.1463 24.3727 13.0468C23.3768 13.773 22.5637 14.7211 21.9978 15.816C21.4319 16.9109 21.1288 18.1225 21.1123 19.3549ZM55.8423 5.17944C56.7394 5.17944 57.6164 5.44548 58.3624 5.94392C59.1084 6.44236 59.6898 7.15081 60.0331 7.97968C60.3764 8.80856 60.4663 9.72062 60.2912 10.6006C60.1162 11.4805 59.6842 12.2887 59.0498 12.9231C58.4154 13.5575 57.6071 13.9896 56.7272 14.1646C55.8473 14.3396 54.9352 14.2498 54.1063 13.9065C53.2775 13.5631 52.569 12.9817 52.0706 12.2357C51.5721 11.4898 51.3061 10.6128 51.3061 9.71559C51.3247 8.52486 51.8108 7.38919 52.6595 6.55377C53.5082 5.71834 54.6514 5.25017 55.8423 5.25031V5.17944ZM51.6605 14.11C52.7715 15.1881 54.2587 15.7912 55.8068 15.7912C57.3549 15.7912 58.8422 15.1881 59.9531 14.11C60.7922 14.7183 61.4742 15.5178 61.9426 16.4422C62.411 17.3667 62.6523 18.3895 62.6465 19.4258V25.8048H51.377V19.6384C51.3879 18.1763 51.0218 16.736 50.3138 15.4567C50.6959 14.9456 51.1494 14.4921 51.6605 14.11ZM42.5882 4.47066C43.5694 4.47066 44.5287 4.76164 45.3446 5.30681C46.1605 5.85198 46.7964 6.62685 47.1719 7.53343C47.5474 8.44001 47.6457 9.43759 47.4543 10.4C47.2628 11.3624 46.7903 12.2465 46.0964 12.9403C45.4026 13.6342 44.5185 14.1067 43.5561 14.2982C42.5937 14.4896 41.5961 14.3914 40.6895 14.0158C39.7829 13.6403 39.0081 13.0044 38.4629 12.1885C37.9177 11.3726 37.6267 10.4134 37.6267 9.43208C37.6267 8.11623 38.1495 6.85428 39.0799 5.92383C40.0104 4.99338 41.2723 4.47066 42.5882 4.47066ZM38.1938 13.9682C39.3742 15.1326 40.9656 15.7854 42.6236 15.7854C44.2817 15.7854 45.873 15.1326 47.0534 13.9682C47.9606 14.624 48.6978 15.4873 49.2033 16.486C49.7088 17.4848 49.9681 18.59 49.9594 19.7093V28.7107H35.2169V19.6384C35.2333 18.526 35.5113 17.433 36.0284 16.448C36.5456 15.4629 37.2874 14.6134 38.1938 13.9682ZM29.3341 5.25031C30.2313 5.25031 31.1083 5.51636 31.8542 6.01479C32.6002 6.51323 33.1816 7.22168 33.525 8.05056C33.8683 8.87943 33.9581 9.7915 33.7831 10.6714C33.6081 11.5514 33.176 12.3596 32.5416 12.994C31.9072 13.6284 31.099 14.0604 30.219 14.2355C29.3391 14.4105 28.4271 14.3207 27.5982 13.9773C26.7693 13.634 26.0609 13.0526 25.5624 12.3066C25.064 11.5607 24.7979 10.6836 24.7979 9.78647C24.7979 8.58341 25.2758 7.42962 26.1265 6.57892C26.9772 5.72823 28.131 5.25031 29.3341 5.25031ZM25.2232 14.11C26.3342 15.1881 27.8214 15.7912 29.3695 15.7912C30.9176 15.7912 32.4049 15.1881 33.5159 14.11C34.0572 14.5083 34.5351 14.9862 34.9334 15.5275C34.2372 16.7859 33.8714 18.2003 33.8702 19.6384V25.8048H22.5299V19.4258C22.5241 18.3895 22.7654 17.3667 23.2338 16.4422C23.7021 15.5178 24.3841 14.7183 25.2232 14.11Z" fill="#E6007E"/>
</svg>
