<svg width="78" height="68" viewBox="0 0 78 68" fill="none" xmlns="http://www.w3.org/2000/svg">
<path d="M67.1507 49.1L59.0097 42.226C59.2737 41.734 59.4407 41.19 59.4887 40.616C59.5817 39.51 59.2397 38.435 58.5267 37.593C58.0047 36.972 57.3257 36.528 56.5637 36.299C57.6947 34.787 57.6817 32.638 56.4157 31.134C55.8657 30.481 55.1417 30.024 54.3297 29.807C55.2347 28.325 55.1427 26.366 53.9617 24.963C53.3077 24.189 52.4077 23.69 51.4077 23.542C51.8657 22.206 51.6337 20.668 50.6597 19.513C49.9487 18.668 48.9457 18.152 47.8387 18.058C46.7257 17.961 45.6557 18.305 44.8107 19.017L44.6567 19.147L39.9907 16.97C37.5487 15.702 35.4107 16.699 34.3767 18.246C34.0327 18.76 33.8217 19.315 33.7117 19.875L32.6947 19.016C30.9437 17.542 28.3207 17.767 26.8457 19.513C25.8717 20.668 25.6397 22.206 26.0987 23.542C25.0987 23.69 24.2007 24.188 23.5447 24.964C22.8327 25.809 22.4917 26.883 22.5847 27.989C22.6407 28.645 22.8437 29.263 23.1757 29.807C22.3887 30.019 21.6547 30.464 21.0897 31.133C19.8227 32.637 19.8107 34.786 20.9427 36.298C20.2017 36.523 19.5147 36.955 18.9797 37.59C17.8527 38.924 17.7227 40.768 18.5007 42.225L10.3557 49.099C9.93272 49.455 9.87972 50.086 10.2357 50.508C10.4337 50.742 10.7157 50.863 11.0017 50.863C11.2297 50.863 11.4577 50.786 11.6457 50.628L19.8187 43.731L23.0967 46.495C23.8497 47.13 24.7847 47.47 25.7617 47.47C25.8807 47.47 26.0007 47.464 26.1207 47.454C27.2257 47.36 28.2277 46.844 28.9367 46.001C29.6507 45.158 29.9927 44.085 29.8997 42.978C29.8507 42.392 29.6767 41.841 29.4057 41.341C30.2317 41.141 31.0067 40.696 31.5947 39.999C32.4047 39.038 32.6837 37.816 32.4967 36.663C32.4977 36.663 32.4987 36.663 32.4997 36.663C33.6657 36.663 34.8147 36.179 35.6017 35.25C36.3367 34.511 36.7167 33.505 36.6697 32.419C36.6677 32.383 36.6557 32.349 36.6537 32.314C36.8177 32.334 36.9797 32.361 37.1467 32.361C37.2657 32.361 37.3867 32.356 37.5067 32.345C38.6137 32.251 39.6147 31.734 40.2667 30.954C41.0057 30.219 41.3877 29.216 41.3427 28.129C41.3017 27.141 40.9017 26.212 40.2517 25.482L46.0987 20.545C46.5357 20.178 47.0897 19.997 47.6677 20.051C48.2427 20.099 48.7617 20.366 49.1287 20.802C49.8917 21.707 49.7757 23.068 48.8707 23.832L48.1147 24.472C48.1137 24.473 48.1137 24.473 48.1137 24.473C47.6927 24.829 47.6397 25.46 47.9977 25.882C48.3527 26.303 48.9837 26.355 49.4057 25.999L49.4107 25.994C49.8447 25.631 50.4017 25.459 50.9677 25.503C51.5437 25.551 52.0647 25.817 52.4317 26.253C53.1957 27.16 53.0797 28.519 52.1737 29.283L50.5697 30.64C50.5697 30.64 50.5687 30.641 50.5677 30.641C50.1467 30.998 50.0937 31.629 50.4507 32.05C50.8067 32.472 51.4377 32.525 51.8597 32.168C52.2957 31.798 52.8677 31.627 53.4257 31.671C53.9997 31.72 54.5177 31.986 54.8847 32.422C55.6477 33.328 55.5317 34.688 54.6277 35.452L52.6817 37.094L52.6807 37.095C52.2587 37.451 52.2047 38.082 52.5607 38.504C52.9167 38.926 53.5467 38.981 53.9697 38.624L53.9727 38.622C54.4087 38.255 54.9587 38.084 55.5367 38.128C56.1107 38.177 56.6287 38.443 56.9967 38.881C57.3657 39.318 57.5417 39.874 57.4937 40.447C57.4447 41.021 57.1787 41.541 56.7427 41.909L47.6537 49.581C43.9447 52.712 40.8857 52.381 36.2907 51.467C35.9907 51.404 35.6837 51.487 35.4497 51.684L21.7647 63.236C21.3427 63.591 21.2897 64.222 21.6467 64.645C21.8437 64.879 22.1257 65 22.4107 65C22.6387 65 22.8667 64.923 23.0557 64.764L36.3737 53.521C38.2717 53.887 40.0087 54.142 41.6867 54.08L54.4587 64.767C54.6477 64.924 54.8747 65 55.1007 65C55.3867 65 55.6707 64.878 55.8687 64.642C56.2227 64.218 56.1677 63.588 55.7437 63.234L44.3277 53.681C45.8427 53.252 47.3547 52.452 48.9437 51.111L57.6917 43.729L65.8607 50.627C66.0487 50.786 66.2777 50.863 66.5057 50.863C66.7907 50.863 67.0727 50.743 67.2707 50.509C67.6257 50.087 67.5727 49.456 67.1507 49.1ZM36.1447 21.927C35.3877 21.288 35.5257 20.126 36.0407 19.357C36.2947 18.977 37.2647 17.81 39.1087 18.763L42.9747 20.567L38.7537 24.131L36.1537 21.937L36.1467 21.931C36.1457 21.93 36.1467 21.928 36.1447 21.927ZM27.4107 44.709C27.0437 45.146 26.5257 45.412 25.9527 45.46C25.3737 45.512 24.8217 45.332 24.3867 44.965L20.7637 41.911C19.8587 41.143 19.7437 39.784 20.5087 38.88C21.2667 37.98 22.6097 37.861 23.5167 38.611L27.1587 41.682C27.5947 42.049 27.8607 42.568 27.9087 43.143C27.9567 43.718 27.7797 44.273 27.4107 44.709ZM30.0677 38.708C29.3037 39.613 27.9457 39.729 27.0397 38.967L24.8307 37.104C24.8277 37.102 24.8267 37.098 24.8237 37.095L24.8227 37.094L22.8777 35.453C21.9727 34.687 21.8567 33.328 22.6187 32.423C22.9877 31.986 23.5077 31.72 24.0817 31.671C24.6567 31.624 25.2127 31.799 25.6487 32.168L25.6497 32.169C25.6517 32.171 25.6557 32.171 25.6577 32.173L29.8087 35.68C30.7147 36.444 30.8297 37.804 30.0677 38.708ZM34.1317 33.896C33.3657 34.801 32.0077 34.917 31.1007 34.152L26.9267 30.627C26.9257 30.626 26.9237 30.626 26.9227 30.625L25.3297 29.281C24.8937 28.914 24.6277 28.395 24.5787 27.82C24.5297 27.246 24.7067 26.688 25.0737 26.253C25.4417 25.817 25.9607 25.551 26.5347 25.503C27.0987 25.45 27.6597 25.628 28.0947 25.991L28.1037 25.999L33.8727 30.867C34.3487 31.269 34.6477 31.881 34.6747 32.503C34.6957 33.025 34.5237 33.499 34.1317 33.896ZM38.7997 29.6C38.4327 30.036 37.9147 30.302 37.3407 30.351C36.7637 30.404 36.2107 30.224 35.7767 29.858C35.7277 29.817 35.6837 29.816 35.6427 29.839C35.4927 29.664 35.3397 29.489 35.1627 29.339L29.3927 24.47C29.3887 24.466 29.3847 24.464 29.3807 24.46L28.6337 23.831C27.7287 23.066 27.6127 21.706 28.3747 20.802C29.1397 19.898 30.4997 19.781 31.4047 20.543L32.7717 21.698C32.7727 21.698 32.7727 21.699 32.7737 21.7L34.9457 23.534L35.6177 24.101L38.5467 26.574C39.0227 26.975 39.3207 27.587 39.3477 28.211C39.3687 28.73 39.1947 29.2 38.7997 29.6Z" fill="#4E4D4D"/>
<path d="M42.7577 10.26C43.3107 10.26 43.7577 9.813 43.7577 9.26V4C43.7577 3.447 43.3107 3 42.7577 3C42.2047 3 41.7577 3.447 41.7577 4V9.26C41.7577 9.813 42.2047 10.26 42.7577 10.26Z" fill="#E6007E"/>
<path d="M56.0067 13.135C56.3147 13.135 56.6177 12.993 56.8147 12.727L59.9257 8.48703C60.2517 8.04203 60.1557 7.41603 59.7107 7.08903C59.2627 6.76103 58.6387 6.86003 58.3127 7.30403L55.2017 11.544C54.8757 11.989 54.9717 12.615 55.4167 12.942C55.5947 13.072 55.8017 13.135 56.0067 13.135Z" fill="#E6007E"/>
<path d="M28.7017 12.727C28.8967 12.994 29.2007 13.135 29.5087 13.135C29.7137 13.135 29.9207 13.072 30.0997 12.941C30.5447 12.615 30.6407 11.989 30.3137 11.544L27.2007 7.30405C26.8747 6.86005 26.2497 6.76305 25.8037 7.09005C25.3587 7.41605 25.2627 8.04205 25.5897 8.48705L28.7017 12.727Z" fill="#E6007E"/>
</svg>
