<svg width="78" height="68" viewBox="0 0 78 68" fill="none" xmlns="http://www.w3.org/2000/svg">
<path d="M14.6872 13.8689H17.8135C17.4922 13.7006 17.1801 13.5153 16.8786 13.3138C15.7347 12.5616 14.7979 11.5344 14.154 10.3263C15.519 10.5269 16.8149 11.0557 17.9304 11.8675C18.7355 12.4187 19.4481 13.0943 20.0414 13.8689H22.2327C21.4468 12.4649 20.3406 11.2661 19.0041 10.3701C17.4857 9.24745 15.6738 8.59019 13.7888 8.47825C13.5049 8.44339 13.2169 8.46617 12.942 8.54525C12.6672 8.62432 12.4111 8.75805 12.1891 8.93844C12.0547 9.23415 12.0288 9.5678 12.1161 9.88071C12.5341 11.4467 13.4335 12.8417 14.6872 13.8689Z" fill="#4E4D4D"/>
<path d="M7.7844 13.869H9.89538C8.27379 11.349 7.89396 8.68285 9.16494 6.84214C11.1883 3.96419 16.5132 4.20523 21.0566 7.37536C23.4174 8.92037 25.2 11.2038 26.1258 13.869H28.0104C27.3311 10.9472 25.1617 8.02546 22.1011 5.87795C19.672 4.0987 16.7616 3.09549 13.7521 3C11.0933 3 8.93119 3.9861 7.66752 5.7903C7.17238 6.52216 6.82986 7.34633 6.66043 8.21355C6.491 9.08078 6.49814 9.97326 6.68143 10.8377C6.88955 11.8992 7.26167 12.9219 7.7844 13.869Z" fill="#E6007E"/>
<path d="M29.683 13.869C30.7513 11.9625 32.2525 10.3337 34.0656 9.11376C38.6163 5.93633 43.9412 5.69529 45.9572 8.58054C46.958 10.0049 46.958 11.9187 46.1618 13.8763H48.1048C48.2477 13.4514 48.3599 13.0169 48.4408 12.5761C48.624 11.7117 48.6312 10.8192 48.4618 9.95195C48.2923 9.08473 47.9498 8.26056 47.4547 7.5287C46.191 5.73181 44.0289 4.7384 41.3701 4.7384C38.3605 4.83389 35.4502 5.8371 33.0211 7.61635C30.7081 9.17681 28.8645 11.3386 27.6888 13.869H29.683Z" fill="#E6007E"/>
<path d="M36.8122 13.8689L37.1701 13.606C38.2877 12.802 39.5835 12.2807 40.9465 12.0867C40.6052 12.7549 40.1588 13.3641 39.6244 13.8909H41.991C42.4846 13.2202 42.8329 12.4539 43.0136 11.6411C43.1009 11.3282 43.0751 10.9945 42.9406 10.6988C42.7186 10.5184 42.4626 10.3847 42.1877 10.3056C41.9128 10.2265 41.6248 10.2038 41.3409 10.2386C39.4604 10.3377 37.6489 10.9796 36.1256 12.0867C35.3926 12.5941 34.721 13.1849 34.1241 13.847L36.8122 13.8689Z" fill="#4E4D4D"/>
<path d="M42.0604 51.8863L40.7691 50.5951L27.8566 63.5076L29.1478 64.7989L42.0604 51.8863Z" fill="#4E4D4D"/>
<path d="M57.399 51.8859L56.1077 50.5946L43.1952 63.5072L44.4864 64.7984L57.399 51.8859Z" fill="#4E4D4D"/>
<path d="M72.7379 51.8854L71.4467 50.5941L58.5341 63.5067L59.8254 64.7979L72.7379 51.8854Z" fill="#4E4D4D"/>
<path d="M24.1828 57.6956H7.56525V30.304H5.73914V59.4268H24.1828V57.6956Z" fill="#4E4D4D"/>
<path d="M51.3919 30.304H49.5658V49.6607H51.3919V30.304Z" fill="#4E4D4D"/>
<path d="M24.1829 57.6955H24.0002V15.695H33.1308V49.6607H34.9569V13.8689H22.1741V59.5216H24.1829V57.6955Z" fill="#E6007E"/>
<path d="M24.9133 50.3911V65H76.0444V50.3911H24.9133ZM26.7394 63.1739V52.2172H39.157L28.2003 63.1739H26.7394ZM30.7715 63.1739L41.7282 52.2172H54.4817L43.525 63.1739H30.7715ZM46.1108 63.1739L57.0675 52.2172H69.821L58.8644 63.1739H46.1108ZM74.2183 63.1739H61.4355L72.3922 52.2172H74.2037L74.2183 63.1739Z" fill="#4E4D4D"/>
<path d="M22.1742 28.4778H4.82611V15.695H22.1742V13.8689H3V30.3039H22.1742V28.4778Z" fill="#4E4D4D"/>
<path d="M34.9569 13.8689V15.695H52.305V28.4778H34.9569V30.3039H54.1311V13.8689H34.9569Z" fill="#4E4D4D"/>
</svg>
