<svg width="103" height="39" viewBox="0 0 103 39" fill="none" xmlns="http://www.w3.org/2000/svg">
<g clip-path="url(#clip0_100_4238)">
<path d="M102.836 19.9457V17.8161C102.836 10.3545 98.8313 7.0293 92.7768 7.0293H92.6709C83.4011 7.09868 82.4689 15.3662 82.4689 17.9602C82.4689 26.6174 86.8707 29.6436 92.6709 29.7877C92.851 29.7877 92.994 29.8251 93.1688 29.8251C96.8555 29.8251 101.151 28.0584 102.619 22.8652H96.8184C96.3947 24.413 94.7844 25.2457 93.1688 25.2457H92.6709C88.5869 24.9574 88.2691 21.5362 88.2691 19.9457H102.836ZM92.6709 11.6835H92.708C94.4983 11.6835 96.7549 12.7669 97.0727 16.2309H88.2691C88.5869 13.4128 90.0224 11.6835 92.6709 11.6835Z" fill="black"/>
<path d="M81.2509 0.181641H75.5938V29.3929H81.2509V0.181641Z" fill="black"/>
<path d="M65.3596 7.0293C64.7505 7.0293 64.2155 7.06666 63.7123 7.14138C61.0585 7.64309 59.8455 9.30834 58.9503 10.7121H58.8814V7.57371H53.4414V37.9432H59.0933V26.4412L59.1992 26.4733C59.7766 27.482 60.8837 29.2167 63.7123 29.681C64.1784 29.7557 64.6763 29.8304 65.2537 29.8304C71.626 29.8304 74.3486 24.1675 74.3486 18.2484C74.3486 10.7494 70.1216 7.0293 65.3596 7.0293ZM63.7123 25.1389H63.5693C59.9196 25.1389 58.8814 21.1306 58.8814 18.574C58.8814 15.1474 60.1368 11.9397 63.7123 11.9397C67.5791 11.9397 68.5431 15.4356 68.5431 18.9049C68.5431 22.0753 67.1818 25.0322 63.7123 25.1443V25.1389Z" fill="black"/>
<path d="M21.1561 7.57371V29.2487H26.8133V15.9373C26.8133 13.6316 27.6714 11.7902 30.3199 11.7902C33.1856 11.7902 33.7206 14.3895 33.7206 16.2255V29.2433H39.3354V16.2629C39.3354 13.701 40.3789 11.7902 43.2393 11.7902C44.8496 11.7902 46.2798 12.8737 46.2798 16.0814V29.2487H51.8999V14.2454C51.8999 9.52184 48.6793 7.0293 44.4576 7.0293C41.0251 7.0293 39.4466 9.40975 38.7633 10.4559C37.259 8.18216 35.8659 7.0293 32.7512 7.0293C28.9533 7.0293 27.4172 9.34037 26.7021 10.7441H26.5961V7.57371H21.1561Z" fill="black"/>
<path d="M26.5749 0H21.1561V5.26262H26.5749V0Z" fill="#E6007E"/>
<path d="M19.0427 14.4268C18.6136 8.29417 13.6027 7.24805 9.41275 7.24805C2.72265 7.24805 0.752173 11.3258 0.752173 14.4962C0.752173 22.6143 14.0688 19.8709 14.0688 23.4789C14.0688 24.2742 13.3908 25.7526 10.451 25.7526C6.91257 25.7526 5.80021 24.3809 5.80021 22.5395H0C0 28.3092 5.44001 30.0385 10.3079 30.0385C13.6715 30.0385 19.6836 28.923 19.6836 22.6089C19.6836 14.6029 6.26104 17.1275 6.26104 13.7009C6.26104 12.7615 6.65302 11.5713 9.73057 11.5713C12.8081 11.5713 13.3113 13.0497 13.5285 14.4214H19.0427V14.4268Z" fill="black"/>
<path d="M64.279 37.1907H63.5321V37.9219H64.279V37.1907Z" fill="black"/>
<path d="M65.5397 37.9219H64.7928V37.1907H65.5397V37.9219Z" fill="black"/>
<path d="M66.795 37.9219H66.0535V37.1907H66.795V37.9219Z" fill="black"/>
<path d="M67.982 36.251H68.9725V35.2529H69.6717V37.9269H68.9725V36.8168H67.982V37.9269H67.2881V35.2529H67.982V36.251Z" fill="black"/>
<path d="M71.7848 37.1373C71.7266 37.3241 71.5306 37.4309 71.3346 37.4309C70.7731 37.4309 70.7307 36.9772 70.7307 36.7744H72.5317V36.5128C72.5317 35.5948 72.0338 35.1838 71.2869 35.1838C70.1269 35.1838 70.0156 36.2139 70.0156 36.5342C70.0156 37.6337 70.593 37.9966 71.3346 37.9966C71.7901 37.9966 72.3145 37.7831 72.4999 37.1426H71.7848V37.1373ZM70.7307 36.3207C70.7678 35.9738 70.9479 35.7603 71.2763 35.7603C71.4988 35.7603 71.7742 35.8937 71.8113 36.3207H70.7254H70.7307Z" fill="black"/>
<path d="M76.5204 35.2478V37.9218H75.8265V35.8136H74.8359V37.9218H74.1367V35.2478H76.5204Z" fill="black"/>
<path d="M77.6596 36.6091C77.6596 36.9294 77.7867 37.4204 78.237 37.4204C78.6872 37.4204 78.8514 37.0468 78.8514 36.6518C78.8514 36.2248 78.7349 35.7925 78.2582 35.7925C77.8132 35.7925 77.6596 36.1928 77.6596 36.6145V36.6091ZM77.6596 35.6377H77.6702C77.8026 35.4296 77.9933 35.1787 78.4594 35.1787C79.0474 35.1787 79.5718 35.6431 79.5718 36.5664C79.5718 37.2976 79.2381 37.9915 78.4489 37.9915C77.9615 37.9915 77.7867 37.7246 77.702 37.5805H77.6861V39.0002H76.9922V35.2534H77.6649V35.6431L77.6596 35.6377Z" fill="black"/>
<path d="M81.1451 35.7712C81.6801 35.7712 81.7807 36.2462 81.7807 36.5878C81.7807 36.9294 81.6854 37.4044 81.1451 37.4044C80.6048 37.4044 80.5042 36.9294 80.5042 36.5824C80.5042 36.2355 80.6101 35.7712 81.1451 35.7712ZM81.1451 35.1787C80.4353 35.1787 79.7891 35.6217 79.7891 36.5878C79.7891 37.5538 80.4353 37.9968 81.1451 37.9968C81.8549 37.9968 82.4958 37.5485 82.4958 36.5824C82.4958 35.6164 81.8549 35.1787 81.1451 35.1787Z" fill="black"/>
<path d="M84.445 36.9503C84.445 37.073 84.3232 37.4199 83.9683 37.4199C83.4386 37.4199 83.4333 36.8382 83.4333 36.55C83.4333 36.2137 83.5445 35.776 83.9842 35.776C84.3179 35.776 84.4185 36.0322 84.445 36.2084H85.1495C85.0859 35.3811 84.4026 35.1836 83.9789 35.1836C83.0784 35.1836 82.7129 35.7974 82.7129 36.662C82.7129 37.2225 82.9407 37.9964 83.9365 37.9964C84.9323 37.9964 85.1177 37.2278 85.1442 36.9503H84.445Z" fill="black"/>
<path d="M86.7703 37.9216V35.8133H87.5595V35.2529H85.2871V35.8133H86.0764V37.9216H86.7703Z" fill="black"/>
<path d="M89.0474 35.7712C89.5824 35.7712 89.6831 36.2462 89.6831 36.5878C89.6831 36.9294 89.5824 37.4044 89.0474 37.4044C88.5124 37.4044 88.4065 36.9294 88.4065 36.5824C88.4065 36.2355 88.5124 35.7712 89.0474 35.7712ZM89.0474 35.1787C88.3376 35.1787 87.6914 35.6217 87.6914 36.5878C87.6914 37.5538 88.3376 37.9968 89.0474 37.9968C89.7572 37.9968 90.3982 37.5485 90.3982 36.5824C90.3982 35.6164 89.7572 35.1787 89.0474 35.1787Z" fill="black"/>
<path d="M92.7027 35.7282H93.1635C93.3966 35.7282 93.5555 35.8082 93.5555 36.0271C93.5555 36.2459 93.3913 36.3313 93.1635 36.3313H92.708V35.7282H92.7027ZM92.0088 37.9218H93.3383C93.9422 37.9218 94.3077 37.687 94.3077 37.1906C94.3077 36.7529 94.0111 36.5821 93.7356 36.5181C94.0111 36.4487 94.2282 36.2512 94.2282 35.9417C94.2282 35.4933 93.7939 35.2478 93.2059 35.2478H92.0088V37.9218ZM92.7027 36.7529H93.2059C93.4602 36.7529 93.6297 36.8597 93.6297 37.0945C93.6297 37.3561 93.4708 37.4361 93.2165 37.4361H92.7027V36.7476V36.7529Z" fill="black"/>
<path d="M95.3515 36.9449L96.358 35.2529H97.1049V37.9269H96.4056V36.2297L95.3992 37.9269H94.6523V35.2529H95.3515V36.9449Z" fill="black"/>
<path d="M98.2593 36.251H99.2552V35.2529H99.9491V37.9269H99.2552V36.8168H98.2593V37.9269H97.5654V35.2529H98.2593V36.251Z" fill="black"/>
<path d="M101.655 35.7712C102.19 35.7712 102.29 36.2462 102.29 36.5878C102.29 36.9294 102.19 37.4044 101.655 37.4044C101.12 37.4044 101.014 36.9294 101.014 36.5824C101.014 36.2355 101.115 35.7712 101.655 35.7712ZM101.655 35.1787C100.945 35.1787 100.299 35.6217 100.299 36.5878C100.299 37.5538 100.945 37.9968 101.655 37.9968C102.365 37.9968 103.006 37.5485 103.006 36.5824C103.006 35.6164 102.365 35.1787 101.655 35.1787Z" fill="black"/>
</g>
<defs>
<clipPath id="clip0_100_4238">
<rect width="103" height="39" fill="white"/>
</clipPath>
</defs>
</svg>
